<svg id="balance_icon" xmlns="http://www.w3.org/2000/svg" width="32" height="32" viewBox="0 0 32 32">
  <rect id="Rectangle_2402" data-name="Rectangle 2402" width="32" height="32" fill="none"/>
  <path id="pay21" d="M36.28,58.631H24.521a1.957,1.957,0,0,1-1.954-1.954V52.523a1.957,1.957,0,0,1,1.954-1.954H36.283a1.959,1.959,0,0,1,1.957,1.954v4.154a1.962,1.962,0,0,1-1.96,1.954ZM24.521,51.712a.814.814,0,0,0-.811.811v4.154a.813.813,0,0,0,.811.811H36.283a.815.815,0,0,0,.814-.811V52.523a.815.815,0,0,0-.814-.811H24.521Zm10.93,9.75v2.568A2.259,2.259,0,0,1,33.218,66.3H13.9a2.26,2.26,0,0,1-2.24-2.274V45.167A2.256,2.256,0,0,1,13.9,42.9H33.218a2.256,2.256,0,0,1,2.234,2.271v2.085h1.423V45.167a3.677,3.677,0,0,0-3.657-3.694H13.9a3.68,3.68,0,0,0-3.66,3.694V64.031a3.678,3.678,0,0,0,3.66,3.694H33.218a3.676,3.676,0,0,0,3.657-3.694V61.462ZM25.864,53.62a1.116,1.116,0,1,1-1.117,1.117,1.114,1.114,0,0,1,1.117-1.117Z" transform="translate(-8.24 -38.474)" fill="#238fc0"/>
</svg>
