<svg xmlns="http://www.w3.org/2000/svg" width="16" height="14.769" viewBox="0 0 16 14.769">
  <g id="Icon_ionic-ios-calendar" data-name="Icon ionic-ios-calendar" transform="translate(-2.625 -3.5)">
    <path id="Path_1234" data-name="Path 1234" d="M17.087,5.25H15.548v.888a.3.3,0,0,1-.308.3h-.615a.3.3,0,0,1-.308-.3V5.25H6.933v.888a.3.3,0,0,1-.308.3H6.01a.3.3,0,0,1-.308-.3V5.25H4.163A1.514,1.514,0,0,0,2.625,6.729V16.79a1.514,1.514,0,0,0,1.538,1.479H17.087a1.514,1.514,0,0,0,1.538-1.479V6.729A1.514,1.514,0,0,0,17.087,5.25Zm.308,11.1a.757.757,0,0,1-.769.74h-12a.757.757,0,0,1-.769-.74V9.688a.3.3,0,0,1,.308-.3H17.087a.3.3,0,0,1,.308.3Z" fill="rgba(35,147,151,0.97)"/>
    <path id="Path_1235" data-name="Path 1235" d="M8.75,3.938A.439.439,0,0,0,8.313,3.5H7.438A.439.439,0,0,0,7,3.938V5.25H8.75Z" transform="translate(-1.406)" fill="rgba(35,147,151,0.97)"/>
    <path id="Path_1236" data-name="Path 1236" d="M21,3.938a.439.439,0,0,0-.437-.437h-.875a.439.439,0,0,0-.437.438V5.25H21Z" transform="translate(-5.344)" fill="rgba(35,147,151,0.97)"/>
  </g>
</svg>
