<svg id="email_icon" xmlns="http://www.w3.org/2000/svg" width="24" height="24" viewBox="0 0 24 24">
  <rect id="Rectangle_1787" data-name="Rectangle 1787" width="24" height="24" fill="none"/>
  <g id="Icon_ionic-ios-mail" data-name="Icon ionic-ios-mail" transform="translate(1 5)">
    <path id="Path_1237" data-name="Path 1237" d="M24.064,8.054l-5.591,5.695a.1.1,0,0,0,0,.145l3.913,4.167a.674.674,0,0,1,0,.956.677.677,0,0,1-.956,0l-3.9-4.152a.107.107,0,0,0-.151,0l-.951.966a4.184,4.184,0,0,1-2.983,1.257A4.267,4.267,0,0,1,10.4,15.8l-.914-.93a.107.107,0,0,0-.151,0l-3.9,4.152a.677.677,0,0,1-.956,0,.674.674,0,0,1,0-.956L8.4,13.894a.111.111,0,0,0,0-.145L2.8,8.054a.1.1,0,0,0-.177.073V19.521a1.668,1.668,0,0,0,1.663,1.663h18.29a1.668,1.668,0,0,0,1.663-1.663V8.127A.1.1,0,0,0,24.064,8.054Z" transform="translate(-2.625 -6.22)" fill="#239397"/>
    <path id="Path_1238" data-name="Path 1238" d="M13.466,15.639a2.825,2.825,0,0,0,2.032-.852l8.153-8.3a1.633,1.633,0,0,0-1.029-.364H4.316a1.622,1.622,0,0,0-1.029.364l8.153,8.3A2.825,2.825,0,0,0,13.466,15.639Z" transform="translate(-2.658 -6.125)" fill="#239397"/>
  </g>
</svg>
