<svg id="faceid_icon" xmlns="http://www.w3.org/2000/svg" width="64" height="63.999" viewBox="0 0 64 63.999">
  <g id="Group_13770" data-name="Group 13770" transform="translate(-120 -220)">
    <g id="noun_Face_ID_1280817" data-name="noun_Face ID_1280817" transform="translate(120 220)">
      <g id="Group_13769" data-name="Group 13769" transform="translate(0 0)">
        <path id="Path_6353" data-name="Path 6353" d="M43.687,51.841a5.51,5.51,0,0,0,5.5-5.5v-10.6a1.426,1.426,0,1,0-2.853,0v10.6a2.652,2.652,0,0,1-2.65,2.65,1.427,1.427,0,0,0,0,2.854Z" transform="translate(-15.764 -13.469)" fill="#239397"/>
        <path id="Path_6354" data-name="Path 6354" d="M27.5,37.055v4.076a1.732,1.732,0,0,0,3.465,0V37.055a1.732,1.732,0,0,0-3.465,0Z" transform="translate(-11.5 -13.761)" fill="#239397"/>
        <path id="Path_6355" data-name="Path 6355" d="M69.358,42.865a1.733,1.733,0,0,0,1.732-1.732V37.056a1.732,1.732,0,0,0-3.465,0v4.076A1.733,1.733,0,0,0,69.358,42.865Z" transform="translate(-23.092 -13.761)" fill="#239397"/>
        <path id="Path_6356" data-name="Path 6356" d="M56.8,68.692a1.426,1.426,0,0,0-2.009-.185,16.6,16.6,0,0,1-21.215,0A1.426,1.426,0,1,0,31.754,70.7a19.455,19.455,0,0,0,24.863,0A1.427,1.427,0,0,0,56.8,68.692Z" transform="translate(-12.58 -23.252)" fill="#239397"/>
        <path id="Path_6357" data-name="Path 6357" d="M6.427,28.236A1.426,1.426,0,0,0,7.854,26.81V19.686A11.845,11.845,0,0,1,19.685,7.855h7.124a1.426,1.426,0,1,0,0-2.853H19.685A14.7,14.7,0,0,0,5,19.687V26.81A1.427,1.427,0,0,0,6.427,28.236Z" transform="translate(-5 -5.001)" fill="#239397"/>
        <path id="Path_6358" data-name="Path 6358" d="M84.133,62.325a1.426,1.426,0,0,0-1.426,1.426v7.124A11.845,11.845,0,0,1,70.875,82.707H63.751a1.426,1.426,0,0,0,0,2.853h7.124A14.7,14.7,0,0,0,85.561,70.875V63.751A1.427,1.427,0,0,0,84.133,62.325Z" transform="translate(-21.561 -21.561)" fill="#239397"/>
        <path id="Path_6359" data-name="Path 6359" d="M26.809,82.707H19.685A11.845,11.845,0,0,1,7.854,70.875V63.751a1.426,1.426,0,0,0-2.853,0v7.124A14.7,14.7,0,0,0,19.686,85.561H26.81a1.427,1.427,0,0,0,0-2.854Z" transform="translate(-5 -21.561)" fill="#239397"/>
        <path id="Path_6360" data-name="Path 6360" d="M70.875,5H63.751a1.426,1.426,0,0,0,0,2.853h7.124A11.845,11.845,0,0,1,82.707,19.685v7.123a1.426,1.426,0,1,0,2.853,0V19.686A14.7,14.7,0,0,0,70.875,5Z" transform="translate(-21.561 -5.001)" fill="#239397"/>
      </g>
    </g>
  </g>
</svg>
