<svg id="fingerprint_icon" xmlns="http://www.w3.org/2000/svg" width="64" height="64.131" viewBox="0 0 64 64.131">
  <rect id="Rectangle_1812" data-name="Rectangle 1812" width="64" height="64" fill="none"/>
  <g id="Group_8249" data-name="Group 8249" transform="translate(3 0.132)">
    <g id="Group_8248" data-name="Group 8248" transform="translate(0)">
      <path id="Path_1209" data-name="Path 1209" d="M98.622,184.57a25.345,25.345,0,0,1-2.96-12.336c0-7.744,6.7-14.048,14.928-14.048,8.24,0,14.928,6.3,14.928,14.048a1.6,1.6,0,1,0,3.2,0c0-9.52-8.128-17.248-18.128-17.248s-18.128,7.744-18.128,17.248a28.475,28.475,0,0,0,3.376,13.9,33.529,33.529,0,0,0,6.432,8.432,1.588,1.588,0,0,0,1.136.48,1.435,1.435,0,0,0,1.1-.48,1.579,1.579,0,0,0,.016-2.256A30.328,30.328,0,0,1,98.622,184.57Z" transform="translate(-81.784 -131.738)" fill="#239397"/>
      <path id="Path_1210" data-name="Path 1210" d="M81.273,7.712a37.4,37.4,0,0,1,35.648.016,1.715,1.715,0,0,0,.736.176h0a1.6,1.6,0,0,0,.736-3.024A40.657,40.657,0,0,0,79.737,4.9a1.6,1.6,0,1,0,1.536,2.816Z" transform="translate(-70.259)" fill="#239397"/>
      <path id="Path_1211" data-name="Path 1211" d="M63.967,103.04a26.578,26.578,0,0,0-24.032,14.7A23.692,23.692,0,0,0,37.743,128.1a35.629,35.629,0,0,0,2.336,12.656,1.6,1.6,0,0,0,3.008-1.12A31.923,31.923,0,0,1,40.959,128.1a20.555,20.555,0,0,1,1.872-8.976,23.344,23.344,0,0,1,21.152-12.9c12.784,0,23.184,9.808,23.184,21.872a6.671,6.671,0,0,1-13.312,0,9.866,9.866,0,0,0-19.712,0,23.427,23.427,0,0,0,6.928,16.7,24.439,24.439,0,0,0,11.888,6.72,1.192,1.192,0,0,0,.416.064,1.6,1.6,0,0,0,.416-3.136,21.587,21.587,0,0,1-10.48-5.9,20.244,20.244,0,0,1-5.984-14.432,6.671,6.671,0,0,1,13.312,0,9.866,9.866,0,0,0,19.712,0C90.35,114.288,78.511,103.04,63.967,103.04Z" transform="translate(-35.273 -87.584)" fill="#239397"/>
      <path id="Path_1212" data-name="Path 1212" d="M78.595,66.291a33.476,33.476,0,0,0-12-10.4,36.921,36.921,0,0,0-33.008.032A33.327,33.327,0,0,0,21.571,66.4a1.593,1.593,0,0,0,.384,2.224,1.667,1.667,0,0,0,.928.288A1.629,1.629,0,0,0,24.2,68.26a30.047,30.047,0,0,1,10.864-9.488,33.668,33.668,0,0,1,30.08-.032,30.041,30.041,0,0,1,10.848,9.408,1.609,1.609,0,0,0,2.24.368A1.59,1.59,0,0,0,78.595,66.291Z" transform="translate(-21.277 -44.212)" fill="#239397"/>
      <path id="Path_1213" data-name="Path 1213" d="M222.339,274.389a21.008,21.008,0,0,1-3.344.3,13.845,13.845,0,0,1-14.32-13.68,1.6,1.6,0,0,0-3.2,0,17.062,17.062,0,0,0,7.6,14.048,17.381,17.381,0,0,0,9.92,2.832,22.914,22.914,0,0,0,3.9-.352,1.6,1.6,0,0,0-.56-3.152Z" transform="translate(-174.446 -220.501)" fill="#239397"/>
    </g>
  </g>
</svg>
