<svg id="maint_icon" xmlns="http://www.w3.org/2000/svg" width="32" height="32" viewBox="0 0 32 32">
  <path id="paint" d="M41.189,60.961a3.678,3.678,0,0,0-2.6-6.279,3.637,3.637,0,0,0-2.58,1.055l-6.8,6.2a1.6,1.6,0,0,1-1.626.385l-3.739-1.247a2.951,2.951,0,0,0-2.994.709l-3.272,3.269a.67.67,0,0,0,0,.947L30.352,78.767a.666.666,0,0,0,.944,0l3.272-3.272a2.907,2.907,0,0,0,.709-2.994l-1.247-3.739a1.574,1.574,0,0,1,.362-1.607l6.8-6.194Zm-8.428,8.225,1.244,3.739a1.58,1.58,0,0,1-.385,1.626l-2.8,2.8L18.992,65.523l2.8-2.8a1.6,1.6,0,0,1,1.626-.385l3.739,1.247A2.949,2.949,0,0,0,30.13,62.9l6.8-6.2a2.4,2.4,0,0,1,3.314,0A2.343,2.343,0,0,1,40.265,60l-6.8,6.194a2.9,2.9,0,0,0-.709,2.994Zm-15.837-2.54a.685.685,0,0,0-.944,0A17.381,17.381,0,0,1,10.7,69.777a.677.677,0,0,0-.418.486.666.666,0,0,0,.18.614L23.233,83.652a.667.667,0,0,0,.473.2.651.651,0,0,0,.235-.042A18.9,18.9,0,0,0,29.7,80.367a.666.666,0,0,0,0-.944L16.925,66.646ZM23.867,82.4,12.108,70.639a19.12,19.12,0,0,0,4.323-2.6L28.259,79.87A18.774,18.774,0,0,1,23.867,82.4Zm14.41-22.553a1.128,1.128,0,1,0-1.127-1.13A1.13,1.13,0,0,0,38.277,59.844Z" transform="translate(-10.264 -53.683)" fill="#238fc0"/>
  <rect id="Rectangle_2396" data-name="Rectangle 2396" width="32" height="32" transform="translate(0)" fill="none"/>
</svg>
