<svg id="maint_icon" xmlns="http://www.w3.org/2000/svg" width="24" height="24" viewBox="0 0 24 24">
  <path id="paint" d="M33.458,59.391a2.759,2.759,0,0,0-1.952-4.709,2.728,2.728,0,0,0-1.935.791l-5.1,4.648a1.2,1.2,0,0,1-1.22.289l-2.8-.936a2.213,2.213,0,0,0-2.246.531l-2.454,2.451a.5.5,0,0,0,0,.71l9.58,9.578a.5.5,0,0,0,.708,0l2.454-2.454a2.18,2.18,0,0,0,.531-2.246l-.936-2.8a1.18,1.18,0,0,1,.272-1.2l5.1-4.646ZM27.137,65.56l.933,2.8a1.185,1.185,0,0,1-.289,1.22l-2.1,2.1-8.87-8.87,2.1-2.1a1.2,1.2,0,0,1,1.22-.289l2.8.936a2.212,2.212,0,0,0,2.229-.514l5.1-4.648a1.8,1.8,0,0,1,2.486,0,1.757,1.757,0,0,1,.017,2.471l-5.1,4.646a2.177,2.177,0,0,0-.531,2.246ZM15.26,63.655a.513.513,0,0,0-.708,0A13.035,13.035,0,0,1,10.589,66a.508.508,0,0,0-.313.365.5.5,0,0,0,.135.46l9.58,9.58a.5.5,0,0,0,.355.147.488.488,0,0,0,.176-.032,14.174,14.174,0,0,0,4.318-2.579.5.5,0,0,0,0-.708l-9.58-9.583Zm5.207,11.814L11.647,66.65A14.34,14.34,0,0,0,14.89,64.7l8.87,8.87a14.08,14.08,0,0,1-3.294,1.9ZM31.273,58.554a.846.846,0,1,0-.845-.847A.848.848,0,0,0,31.273,58.554Z" transform="translate(-10.264 -53.682)" fill="rgba(35,147,151,0.98)"/>
  <rect id="Rectangle_2396" data-name="Rectangle 2396" width="24" height="24" transform="translate(0)" fill="none"/>
</svg>
