<svg id="otp_icon" xmlns="http://www.w3.org/2000/svg" width="24" height="24" viewBox="0 0 24 24">
  <path id="Path_1266" data-name="Path 1266" d="M27.328,23.991a3.337,3.337,0,1,0,3.338,3.337A3.337,3.337,0,0,0,27.328,23.991Z" transform="translate(-6.666 -6.666)" fill="#239397"/>
  <path id="Path_1267" data-name="Path 1267" d="M17.583,23.991a3.337,3.337,0,1,0,3.338,3.337A3.337,3.337,0,0,0,17.583,23.991Z" transform="translate(-5.583 -6.666)" fill="#239397"/>
  <path id="Path_1268" data-name="Path 1268" d="M7.838,23.991a3.337,3.337,0,1,0,3.338,3.337A3.337,3.337,0,0,0,7.838,23.991Z" transform="translate(-4.5 -6.666)" fill="#239397"/>
  <path id="Path_1269" data-name="Path 1269" d="M27.328,14.245a3.337,3.337,0,1,0,3.338,3.337A3.337,3.337,0,0,0,27.328,14.245Z" transform="translate(-6.666 -5.583)" fill="#239397"/>
  <path id="Path_1270" data-name="Path 1270" d="M17.583,14.245a3.337,3.337,0,1,0,3.338,3.337A3.337,3.337,0,0,0,17.583,14.245Z" transform="translate(-5.583 -5.583)" fill="#239397"/>
  <path id="Path_1271" data-name="Path 1271" d="M7.838,14.245a3.337,3.337,0,1,0,3.338,3.337A3.337,3.337,0,0,0,7.838,14.245Z" transform="translate(-4.5 -5.583)" fill="#239397"/>
  <path id="Path_1272" data-name="Path 1272" d="M27.328,4.5a3.337,3.337,0,1,0,3.338,3.337A3.337,3.337,0,0,0,27.328,4.5Z" transform="translate(-6.666 -4.5)" fill="#239397"/>
  <path id="Path_1273" data-name="Path 1273" d="M17.583,4.5A3.337,3.337,0,1,0,20.92,7.837,3.337,3.337,0,0,0,17.583,4.5Z" transform="translate(-5.583 -4.5)" fill="#239397"/>
  <path id="Path_1274" data-name="Path 1274" d="M7.838,4.5a3.337,3.337,0,1,0,3.338,3.337A3.337,3.337,0,0,0,7.838,4.5Z" transform="translate(-4.5 -4.5)" fill="#239397"/>
</svg>
