<svg id="password_icon" xmlns="http://www.w3.org/2000/svg" width="24" height="24" viewBox="0 0 24 24">
  <rect id="Rectangle_1789" data-name="Rectangle 1789" width="24" height="24" fill="none"/>
  <path id="Icon_ionic-md-lock" data-name="Icon ionic-md-lock" d="M20.417,10.1H19.333V7.932a5.417,5.417,0,1,0-10.833,0V10.1H7.417A2.173,2.173,0,0,0,5.25,12.266V23.1a2.173,2.173,0,0,0,2.167,2.167h13A2.173,2.173,0,0,0,22.583,23.1V12.266A2.173,2.173,0,0,0,20.417,10.1Zm-6.5,9.858a2.167,2.167,0,1,1,2.167-2.167A2.173,2.173,0,0,1,13.917,19.957ZM17.275,10.1H10.558V7.932a3.358,3.358,0,0,1,6.717,0Z" transform="translate(-2.25 -2.516)" fill="#239397"/>
</svg>
