<svg id="pay_visa_icon" xmlns="http://www.w3.org/2000/svg" width="32" height="32" viewBox="0 0 32 32">
  <path id="gate02" d="M15.916,10.486a1.333,1.333,0,0,0-.717.636c-.049.115-.876,2.372-1.84,5.013l-1.742,4.81h1.216l.646-1.8c.361-.986.679-1.857.712-1.934l.066-.142L24.881,20.94l9.31.033.361.17a2.437,2.437,0,0,1,1.271,1.381,5.362,5.362,0,0,1,.142,1.693L36,25.6l1.123-3.079c1.227-3.364,1.232-3.4,1-3.857a1.333,1.333,0,0,0-.3-.367c-.214-.164-21.15-7.807-21.479-7.84a1.54,1.54,0,0,0-.422.033Zm4.912,2.761c2.289.833,6.873,2.5,10.186,3.709s6.041,2.208,6.057,2.224a16.919,16.919,0,0,1-.783,2.2c-.038,0-20.816-7.561-20.844-7.583-.011-.017.734-2.087.783-2.169.016-.027.121-.016.235.022s2.076.755,4.365,1.594ZM10.878,22.26a1.221,1.221,0,0,0-.591.789c-.044.2-.055,2.432-.044,7.429l.016,7.15.153.258a1.135,1.135,0,0,0,.411.411l.257.153H22.5c10.526,0,11.429-.005,11.583-.093a1.545,1.545,0,0,0,.564-.564c.088-.148.093-.778.109-7.314.011-5,0-7.232-.044-7.429a1.184,1.184,0,0,0-.608-.789c-.208-.109-.373-.109-11.616-.109-11.167.005-11.413.005-11.61.109Zm15.866,2.273a2.976,2.976,0,0,1,1.287.74l.318.307.351-.34a2.725,2.725,0,0,1,1.961-.789,2.926,2.926,0,1,1-1.988,5.04l-.351-.323-.29.3a2.892,2.892,0,0,1-2.678.767,2.949,2.949,0,0,1-1.785-4.487,3.082,3.082,0,0,1,1.676-1.205,3.648,3.648,0,0,1,1.5-.006Zm-11.8,2.246v1.178H11.371l.022-.756c.016-.734.022-.767.181-1.024a1.043,1.043,0,0,1,.46-.422l.29-.153h2.618V26.78Zm4-1.024a1.041,1.041,0,0,1,.46.422c.159.258.164.29.181,1.024l.022.756H16.037V25.6h2.618l.29.153Zm-4,4.531v1.178H13.616c-1.232,0-1.342-.005-1.561-.115a1.243,1.243,0,0,1-.613-.7,4.919,4.919,0,0,1-.06-.877v-.663h3.56v1.178Zm4.655-.515a4.918,4.918,0,0,1-.06.877,1.243,1.243,0,0,1-.613.7c-.219.109-.329.115-1.561.115H16.037V29.109H19.6v.663Zm3.5,4.6v.6H11.382V33.766H23.1Zm7.01,0v.6h-5.86V33.766h5.86v.6Zm-14.02,2.356v.6h-4.71V36.121h4.71Zm14.02,0v.6H17.242V36.121h12.87v.6Z" transform="translate(-8.239 -8.45)" fill="#238fc0"/>
  <rect id="Rectangle_2402" data-name="Rectangle 2402" width="32" height="32" fill="none"/>
</svg>
