<svg id="Component_194_2" data-name="Component 194 – 2" xmlns="http://www.w3.org/2000/svg" width="16" height="16" viewBox="0 0 16 16">
  <rect id="Rectangle_1787" data-name="Rectangle 1787" width="16" height="16" fill="none"/>
  <path id="Icon_ionic-md-business" data-name="Icon ionic-md-business" d="M10.186,5.994V3H2.25V16.478h15.5V5.994ZM5.425,14.98H3.837v-1.5H5.425Zm0-2.994H3.837v-1.5H5.425Zm0-2.994H3.837v-1.5H5.425Zm0-3H3.837V4.5H5.425ZM8.6,14.98H7.012v-1.5H8.6Zm0-2.994H7.012v-1.5H8.6Zm0-2.994H7.012v-1.5H8.6Zm0-3H7.012V4.5H8.6Zm7.564,8.986H10.186v-1.5h1.587v-1.5H10.186v-1.5h1.587v-1.5H10.186v-1.5h5.976Zm-1.4-5.988H13.175v1.5h1.587Zm0,2.994H13.175v1.5h1.587Z" transform="translate(-2.25 -1.739)" fill="rgba(35,147,151,0.98)"/>
</svg>
