<svg id="renew_contract_icon" xmlns="http://www.w3.org/2000/svg" width="32" height="32" viewBox="0 0 32 32">
  <path id="redoc" d="M93.4,17.767h9.76v1.086H93.4Zm0,4.337h9.76V23.19H93.4ZM89.064,34.972V11.327H107.5l.014,12.954a6.746,6.746,0,0,1,.986.463v-14.5H88.064V36.264H98.935a7.729,7.729,0,0,1-.811-1.291h-9.06ZM93.4,27.8H98.3a7.783,7.783,0,0,1,.734-1.086H93.4Zm11.083.677v3.543l3.074,3.023.337-.34-2.931-2.88V28.478h-.48Zm.546-3.611v-1.48l-3.049,1.754,3.049,1.754V25.341a6.212,6.212,0,1,1-6.251,6.211H98.3a6.711,6.711,0,1,0,6.731-6.689Z" transform="translate(-83.893 -8.241)" fill="#238fc0"/>
  <rect id="Rectangle_2403" data-name="Rectangle 2403" width="32" height="32" fill="none"/>
</svg>
