<svg id="splash_logo" xmlns="http://www.w3.org/2000/svg" width="240" height="67.858" viewBox="0 0 240 67.858">
  <rect id="svg_1" width="1.49" height="1.647" rx="0.13" transform="translate(1.595 45.197)" fill="#3f3f3f"/>
  <rect id="svg_2" width="1.49" height="1.647" rx="0.13" transform="translate(4.245 45.197)" fill="#3f3f3f"/>
  <path id="svg_3" d="M23.55,35.486q-3.623,0-3.623,4.611v1.1a2.368,2.368,0,0,1-.125.878,2.227,2.227,0,0,1-.3.58,1.1,1.1,0,0,1-.423.3,1.458,1.458,0,0,1-.455,0H17.387a2.588,2.588,0,0,1-1.458-.376A1.364,1.364,0,0,1,15.38,41.4V30.264c0-.141,0-.2-.2-.2h-.721c-.141,0-.2,0-.2.2V42.01a1.333,1.333,0,0,1-.141.549.6.6,0,0,1-.329.314,1.333,1.333,0,0,1-.612.11H10.691a1.035,1.035,0,0,1-.753-.235,1.208,1.208,0,0,1-.235-.863V34.671a.188.188,0,0,0-.2-.2H8.777a.188.188,0,0,0-.22.2v.894H6.566A5.081,5.081,0,0,0,5,35.784a2.933,2.933,0,0,0-1.208.706,3.246,3.246,0,0,0-.784,1.255,5.567,5.567,0,0,0-.282,1.9,3.732,3.732,0,0,0,.925,2.76,3.4,3.4,0,0,0,2.478.894,4.2,4.2,0,0,0,1.458-.22,2.415,2.415,0,0,0,.925-.6,1.866,1.866,0,0,0,.188.91,1.38,1.38,0,0,0,.486.549,1.741,1.741,0,0,0,.659.251,3.8,3.8,0,0,0,.737,0h2.713a2.086,2.086,0,0,0,1.192-.3,2.054,2.054,0,0,0,.659-.8,1.458,1.458,0,0,0,.91.894,4.313,4.313,0,0,0,1.349.188h1.443A3.372,3.372,0,0,0,19.912,44a1.678,1.678,0,0,0,.878-.847,2.384,2.384,0,0,0,1.192.925,5.034,5.034,0,0,0,1.647.267,3.4,3.4,0,0,0,2.713-1.066,5.16,5.16,0,0,0,.91-3.372,5.081,5.081,0,0,0-.91-3.309,3.325,3.325,0,0,0-2.791-1.113ZM8.511,39.83A2.494,2.494,0,0,1,8.025,41.4a2.98,2.98,0,0,1-3.56,0,2.588,2.588,0,0,1-.6-1.913,3.136,3.136,0,0,1,.659-2.274A2.415,2.415,0,0,1,6.3,36.647H8.511V39.83Zm16.937,2.556a2.211,2.211,0,0,1-1.882.784,2.164,2.164,0,0,1-1.866-.784,4.124,4.124,0,0,1-.58-2.431,4.328,4.328,0,0,1,.58-2.431,2.07,2.07,0,0,1,1.851-.878,2.086,2.086,0,0,1,1.882.894,4.3,4.3,0,0,1,.6,2.415,4.109,4.109,0,0,1-.533,2.431h-.047Z" transform="translate(-2.713 13.835)" fill="#3f3f3f"/>
  <rect id="svg_4" width="1.49" height="1.647" rx="0.13" transform="translate(45.318 46.012)" fill="#3f3f3f"/>
  <rect id="svg_5" width="1.49" height="1.647" rx="0.13" transform="translate(42.667 46.012)" fill="#3f3f3f"/>
  <path id="svg_6" d="M46.361,35.458c-2.431,0-3.638,1.568-3.638,4.611v1.1a2.744,2.744,0,0,1-.125.878,1.851,1.851,0,0,1-.314.58,1.051,1.051,0,0,1-.408.3,1.568,1.568,0,0,1-.455,0H40.166a2.509,2.509,0,0,1-1.458-.376,1.317,1.317,0,0,1-.549-1.176V36.038a.188.188,0,0,0-.2-.2h-.737a.188.188,0,0,0-.2.2V41.26a5.678,5.678,0,0,1,0,.768,1.662,1.662,0,0,1-.125.549.706.706,0,0,1-.329.314,1.411,1.411,0,0,1-.627.11H34.364a2.4,2.4,0,0,1-1.458-.392,1.38,1.38,0,0,1-.549-1.176V39.347a4.391,4.391,0,0,0-.251-1.568,2.729,2.729,0,0,0-.69-1.082,2.98,2.98,0,0,0-1.113-.627,4.548,4.548,0,0,0-1.427-.2H26.444l3.968-4.7a.431.431,0,0,0-.078-.3l-.6-.47h-.282l-4.579,5.395v.941c0,.141,0,.22.2.22h3.45a2.933,2.933,0,0,1,1.992.565,2.243,2.243,0,0,1,.549,1.835v1.568a6.117,6.117,0,0,1,0,1,1.255,1.255,0,0,1-.251.643,1.113,1.113,0,0,1-.58.329,3.56,3.56,0,0,1-1,.11H22.319a1.145,1.145,0,0,1-.784-.235,1.066,1.066,0,0,1-.282-.863V30.314c0-.141,0-.2-.2-.2h-.721c-.141,0-.2,0-.2.2V41.9a2.258,2.258,0,0,0,.565,1.725,2.588,2.588,0,0,0,1.851.533H29.58a3.779,3.779,0,0,0,1.568-.267,1.819,1.819,0,0,0,.863-.941,1.38,1.38,0,0,0,.925.972,4.8,4.8,0,0,0,1.3.22H36.12a2.086,2.086,0,0,0,1.192-.3,2.243,2.243,0,0,0,.674-.8,1.4,1.4,0,0,0,.91.894,4.579,4.579,0,0,0,1.474.2h1.223a3.4,3.4,0,0,0,1.082-.173,1.678,1.678,0,0,0,.878-.847,2.384,2.384,0,0,0,1.208.894,4.971,4.971,0,0,0,1.568.267,3.356,3.356,0,0,0,2.7-1.066,5.16,5.16,0,0,0,.925-3.372,5.081,5.081,0,0,0-.925-3.309,3.293,3.293,0,0,0-2.666-1.082Zm1.9,6.9a2.65,2.65,0,0,1-3.764,0,4.25,4.25,0,0,1-.565-2.431,4.454,4.454,0,0,1,.565-2.431,2.117,2.117,0,0,1,1.882-.878,2.086,2.086,0,0,1,1.882.894,4.3,4.3,0,0,1,.58,2.415,4.125,4.125,0,0,1-.58,2.431Z" transform="translate(7.175 13.864)" fill="#3f3f3f"/>
  <rect id="svg_7" width="1.49" height="1.647" rx="0.13" transform="translate(68.449 45.197)" fill="#3f3f3f"/>
  <rect id="svg_8" width="1.49" height="1.647" rx="0.13" transform="translate(65.815 45.197)" fill="#3f3f3f"/>
  <rect id="svg_9" width="1.49" height="1.647" rx="0.13" transform="translate(74.095 59.75)" fill="#3f3f3f"/>
  <rect id="svg_10" width="1.49" height="1.647" rx="0.13" transform="translate(76.745 59.75)" fill="#3f3f3f"/>
  <path id="svg_11" d="M73.868,43H69.415a3.685,3.685,0,0,1-.58-.235,2.886,2.886,0,0,1-.784-.6,3.716,3.716,0,0,1-.69-1.035,3.607,3.607,0,0,1-.282-1.568,4,4,0,0,1,.173-1.161,2.713,2.713,0,0,1,.5-.941,2.431,2.431,0,0,1,.91-.659,3.513,3.513,0,0,1,1.349-.235,2.933,2.933,0,0,1,2.415,1.208q.118.141.282,0l.627-.455a.188.188,0,0,0,0-.282,4,4,0,0,0-1.349-1.16,4.125,4.125,0,0,0-2.007-.439,4.36,4.36,0,0,0-2.18.47,3.623,3.623,0,0,0-1.866,2.493,6.79,6.79,0,0,0-.141,1.255,4.83,4.83,0,0,0,.361,1.992A4.7,4.7,0,0,0,67.094,43H64.349a2.509,2.509,0,0,1-1.458-.376,1.364,1.364,0,0,1-.549-1.176V30.314c0-.141,0-.2-.2-.2h-.69c-.141,0-.2,0-.2.2V42.06a1.333,1.333,0,0,1-.141.549.6.6,0,0,1-.329.314,1.333,1.333,0,0,1-.612.11H58.594a2.587,2.587,0,0,1-1.458-.376,1.364,1.364,0,0,1-.549-1.176V36.038c0-.141,0-.2-.2-.2h-.721c-.141,0-.2,0-.2.2v5.991a1.333,1.333,0,0,1-.141.549.6.6,0,0,1-.329.314,1.286,1.286,0,0,1-.612.11H51.646a1.035,1.035,0,0,1-.753-.235,1.208,1.208,0,0,1-.235-.863V34.642a.188.188,0,0,0-.22-.2h-.721a.188.188,0,0,0-.2.2v.894H47.506a5.05,5.05,0,0,0-1.568.22,2.933,2.933,0,0,0-1.208.706,3.246,3.246,0,0,0-.784,1.255,5.567,5.567,0,0,0-.282,1.9,3.732,3.732,0,0,0,.925,2.76,3.372,3.372,0,0,0,2.462.894,4.234,4.234,0,0,0,1.474-.22,2.541,2.541,0,0,0,.925-.6,1.866,1.866,0,0,0,.188.91,1.568,1.568,0,0,0,.47.549,1.976,1.976,0,0,0,.659.251,4.093,4.093,0,0,0,.753,0h2.791a2.086,2.086,0,0,0,1.192-.3,2.054,2.054,0,0,0,.659-.8,1.458,1.458,0,0,0,.91.894,4.7,4.7,0,0,0,1.568.2h1.568a2.117,2.117,0,0,0,1.192-.3,2.054,2.054,0,0,0,.659-.8,1.427,1.427,0,0,0,.91.894,4.313,4.313,0,0,0,1.349.188h9.535a.188.188,0,0,0,.22-.2v-.753c.016-.125-.078-.188-.2-.188ZM49.514,39.864a2.415,2.415,0,0,1-.5,1.568,2.305,2.305,0,0,1-1.819.6,2.384,2.384,0,0,1-1.741-.58,2.666,2.666,0,0,1-.58-1.913,3.136,3.136,0,0,1,.643-2.274,2.478,2.478,0,0,1,1.819-.643h2.211Z" transform="translate(20.551 13.864)" fill="#3f3f3f"/>
  <rect id="svg_12" width="1.239" height="1.647" rx="0.13" transform="translate(104.801 46.012)" fill="#3f3f3f"/>
  <rect id="svg_13" width="1.49" height="1.647" rx="0.13" transform="translate(111.89 46.012)" fill="#3f3f3f"/>
  <path id="svg_14" d="M81.645,35.834h-.737a.188.188,0,0,0-.2.2V41.9a1.208,1.208,0,0,1-.235.863,1.035,1.035,0,0,1-.753.235H74.682a4.218,4.218,0,0,0,1.568-1.568,4.83,4.83,0,0,0,.455-1.051,3.952,3.952,0,0,0,.157-1.145,4.219,4.219,0,0,0-.251-1.568,3.56,3.56,0,0,0-.753-1.208,3.325,3.325,0,0,0-1.223-.8,4.328,4.328,0,0,0-1.678-.3,4.219,4.219,0,0,0-1.568.314,3.5,3.5,0,0,0-1.208.847,4.015,4.015,0,0,0-.768,1.239,4.218,4.218,0,0,0-.267,1.458,3.968,3.968,0,0,0,.58,2.117,5.9,5.9,0,0,0,1.568,1.568H67.013a1.176,1.176,0,0,1-.784-.235,1.129,1.129,0,0,1-.267-.863v-11.5c0-.141,0-.2-.2-.2h-.721c-.141,0-.2,0-.2.2V41.9a2.321,2.321,0,0,0,.549,1.725,2.65,2.65,0,0,0,1.866.533h4.5a3.67,3.67,0,0,0,1.458-.439,3.011,3.011,0,0,0,1.27.439h5.285a2.384,2.384,0,0,0,1.851-.627,3,3,0,0,0,.549-1.976v-5.52a.278.278,0,1,0-.518-.2ZM73.9,42.2a4.846,4.846,0,0,1-1.019.533,4.846,4.846,0,0,1-1.019-.533A3.591,3.591,0,0,1,71,41.448a3.187,3.187,0,0,1-.58-3.215,2.666,2.666,0,0,1,.565-.847,2.713,2.713,0,0,1,.847-.549,2.933,2.933,0,0,1,1.066-.173,2.682,2.682,0,0,1,1.913.69,2.588,2.588,0,0,1,.753,1.992,3.315,3.315,0,0,1-.8,2.1,3.246,3.246,0,0,1-.863.753Z" transform="translate(32.581 13.864)" fill="#3f3f3f"/>
  <rect id="svg_15" width="1.49" height="1.647" rx="0.13" transform="translate(114.524 46.012)" fill="#3f3f3f"/>
  <rect id="svg_16" width="1.49" height="1.647" rx="0.13" transform="translate(123.479 45.197)" fill="#3f3f3f"/>
  <rect id="svg_17" width="1.49" height="1.647" rx="0.13" transform="translate(126.129 45.197)" fill="#3f3f3f"/>
  <rect id="svg_18" width="1.49" height="1.647" rx="0.13" transform="translate(133.971 59.75)" fill="#3f3f3f"/>
  <rect id="svg_19" width="1.49" height="1.647" rx="0.13" transform="translate(131.336 59.75)" fill="#3f3f3f"/>
  <path id="svg_20" d="M92.541,41.966a3,3,0,0,0,.549-1.976V34.47a.188.188,0,0,0-.2-.2h-.737a.188.188,0,0,0-.2.2v5.865a1.208,1.208,0,0,1-.235.863,1.035,1.035,0,0,1-.753.235H88.416a1.035,1.035,0,0,1-.753-.235,1.207,1.207,0,0,1-.235-.863V33.074a.188.188,0,0,0-.2-.2h-.737a.188.188,0,0,0-.2.2v.894H84.276a5.049,5.049,0,0,0-1.568.22,2.933,2.933,0,0,0-1.208.706,3.246,3.246,0,0,0-.784,1.255,5.567,5.567,0,0,0-.282,1.9,3.733,3.733,0,0,0,.925,2.76,3.387,3.387,0,0,0,2.462.894,4.234,4.234,0,0,0,1.474-.22,2.541,2.541,0,0,0,.925-.6,1.866,1.866,0,0,0,.188.91,1.568,1.568,0,0,0,.47.549,1.929,1.929,0,0,0,.721.141,3.8,3.8,0,0,0,.737,0h2.4a2.384,2.384,0,0,0,1.8-.518Zm-6.273-3.732a2.494,2.494,0,0,1-.486,1.568,2.98,2.98,0,0,1-3.56,0,2.588,2.588,0,0,1-.6-1.913,3.137,3.137,0,0,1,.659-2.274,2.415,2.415,0,0,1,1.772-.643h2.211v3.262Z" transform="translate(41.445 15.432)" fill="#3f3f3f"/>
  <path id="svg_21" d="M92.854,33.76h-.721c-.141,0-.2,0-.2.2v9.253a1.568,1.568,0,0,1-1.678,1.756h-.47a.188.188,0,0,0-.22.2v.753c0,.141,0,.2.22.2h.345a2.98,2.98,0,0,0,2.274-.784,3.137,3.137,0,0,0,.721-2.258V33.964C93.058,33.823,92.995,33.76,92.854,33.76Z" transform="translate(46.637 15.938)" fill="#3f3f3f"/>
  <rect id="svg_22" width="1.49" height="1.647" rx="0.13" transform="translate(151.519 46.012)" fill="#3f3f3f"/>
  <rect id="svg_23" width="1.49" height="1.647" rx="0.13" transform="translate(148.869 46.012)" fill="#3f3f3f"/>
  <path id="svg_24" d="M116.775,43h-4.454a3.137,3.137,0,0,1-.58-.235,2.666,2.666,0,0,1-.784-.6,3.4,3.4,0,0,1-.69-1.035,3.607,3.607,0,0,1-.282-1.568,4,4,0,0,1,.157-1.161,2.51,2.51,0,0,1,.518-.941,2.305,2.305,0,0,1,.91-.659,3.466,3.466,0,0,1,1.349-.235,2.933,2.933,0,0,1,2.4,1.16c0,.094.173.094.282,0l.627-.455a.188.188,0,0,0,0-.282,3.905,3.905,0,0,0-1.364-1.161,4.062,4.062,0,0,0-1.992-.439,4.47,4.47,0,0,0-2.2.47,3.7,3.7,0,0,0-1.27,1.113,3.936,3.936,0,0,0-.58,1.38,6.791,6.791,0,0,0-.141,1.255,4.83,4.83,0,0,0,.376,1.976A4.141,4.141,0,0,0,110,42.938h-6.273a4.219,4.219,0,0,0,1.49-1.568,4.83,4.83,0,0,0,.455-1.051,3.953,3.953,0,0,0,.157-1.145,4.218,4.218,0,0,0-.251-1.568,3.56,3.56,0,0,0-.753-1.208,3.325,3.325,0,0,0-1.223-.8,4.328,4.328,0,0,0-1.678-.3,4.218,4.218,0,0,0-1.647.314,3.5,3.5,0,0,0-1.208.847,3.7,3.7,0,0,0-.753,1.239,3.89,3.89,0,0,0-.282,1.458,3.842,3.842,0,0,0,.6,2.117,5.6,5.6,0,0,0,1.474,1.568H95.823a1.192,1.192,0,0,1-.784-.235,1.129,1.129,0,0,1-.267-.863V30.314c0-.141,0-.2-.2-.2h-.721c-.141,0-.2,0-.2.2V41.9a2.321,2.321,0,0,0,.549,1.725,2.65,2.65,0,0,0,1.866.533h4.517a3.591,3.591,0,0,0,1.443-.439,3.011,3.011,0,0,0,1.27.439h13.487a.188.188,0,0,0,.2-.2V43.2c0-.141-.063-.2-.2-.2Zm-13.754-.8a4.846,4.846,0,0,1-1.019.533,5.27,5.27,0,0,1-1.019-.533,3.591,3.591,0,0,1-.863-.753,3.188,3.188,0,0,1-.58-3.215,2.666,2.666,0,0,1,.565-.847,2.713,2.713,0,0,1,.847-.549,2.98,2.98,0,0,1,1.066-.173,2.682,2.682,0,0,1,1.913.69,2.588,2.588,0,0,1,.753,1.992,2.792,2.792,0,0,1-.22,1.129,3.137,3.137,0,0,1-.58.972,3.246,3.246,0,0,1-.863.753Z" transform="translate(48.952 13.864)" fill="#3f3f3f"/>
  <rect id="svg_25" width="3.466" height="3.529" transform="translate(96.787 10.241)" fill="#3f3f3f"/>
  <rect id="svg_26" width="3.466" height="3.529" transform="translate(90.734 10.241)" fill="#3f3f3f"/>
  <path id="svg_27" d="M78.266,17.8a3.623,3.623,0,0,1-1.333,3.309,6.273,6.273,0,0,1-3.34.612H64.857A7.606,7.606,0,0,1,60.5,20.7a4.924,4.924,0,0,1-1.819-4.36V10.887H55.15v5.457q0,9,10.131,9H76.87a4.579,4.579,0,0,0,4.94-5.1V10.84H78.3L78.266,17.8Z" transform="translate(27.084 2.914)" fill="#3f3f3f"/>
  <path id="svg_28" d="M125.8,20.393c0,2.337-.894,3.513-2.713,3.513h-3.466a6.634,6.634,0,0,0,.721-3.889V13.069h-3.591v7.292c0,2.368-.894,3.544-2.713,3.544h-3.309v-.188a7.841,7.841,0,0,0,.58-3.7V13.069h-3.607v7.073c0,2.525-.894,3.764-2.713,3.764h-4.846V22.98a7.575,7.575,0,0,0-1.96-5.316,6.618,6.618,0,0,0-5.16-2.133,6.885,6.885,0,0,0-5.191,2.07,7.261,7.261,0,0,0-1.976,5.254v1.051H81.515a4.83,4.83,0,0,1-2.729-.549A3.576,3.576,0,0,1,77.767,20.3V7H74.223V21.742a6.273,6.273,0,0,0,1.286,4.14,4.7,4.7,0,0,0,3.936,1.647h7.841a7.308,7.308,0,0,0,11.464,0h24.433c3.638,0,6.179-3,6.179-7.575V13.069h-3.591l.031,7.324ZM95.661,25.819a3.042,3.042,0,0,1-2.541,1.208,3.8,3.8,0,0,1-3.607-4.172,4.7,4.7,0,0,1,.831-2.807,3.027,3.027,0,0,1,2.588-1.27,3.278,3.278,0,0,1,2.7,1.3,4.846,4.846,0,0,1,.863,2.9,4.7,4.7,0,0,1-.831,2.839Z" transform="translate(37.918 0.732)" fill="#3f3f3f"/>
  <path id="svg_29" d="M166.528,38.346V32.276a.549.549,0,0,0-.235-.439L141.64,15.7a.549.549,0,0,0-.58,0l-4.517,3.011a.533.533,0,0,0,0,.878l29.169,19.2a.518.518,0,0,0,.815-.439Z" transform="translate(73.205 5.628)" fill="#238fc0"/>
  <path id="svg_30" d="M148.238,10.413l18.709,12.546a.549.549,0,0,0,.627,0l4.7-3.67a.517.517,0,0,0,0-.847L148.1,2.164a.517.517,0,0,0-.6,0L126.518,17.157a.533.533,0,0,0,0,.894l5.6,3.011a.533.533,0,0,0,.565,0l15.039-10.617a.517.517,0,0,1,.518-.031Z" transform="translate(67.501 -2.07)" fill="#eaac27"/>
  <path id="svg_31" d="M149.485,44.672,130.776,32.126a.518.518,0,0,0-.612,0l-4.7,3.67a.533.533,0,0,0,0,.863l24.167,16.153a.518.518,0,0,0,.6,0L171.19,37.819a.5.5,0,0,0,0-.878l-5.552-2.933a.533.533,0,0,0-.549,0L150.034,44.625a.549.549,0,0,1-.549.047Z" transform="translate(66.912 14.953)" fill="#eaac27"/>
  <path id="svg_32" d="M123.76,18.188v6.053A.533.533,0,0,0,124,24.7l24.637,16.122a.5.5,0,0,0,.58,0l4.517-3.011a.517.517,0,0,0,0-.878L124.576,17.764a.518.518,0,0,0-.815.423Z" transform="translate(66.071 6.795)" fill="#238fc0"/>
</svg>
