<svg xmlns="http://www.w3.org/2000/svg" width="16.585" height="16.451" viewBox="0 0 16.585 16.451">
  <g id="tenant_icon" transform="translate(0.24 0.25)">
    <path id="prop_49" d="M14.242,15.166c-2.161,1.861-3.947,3.407-3.976,3.436-.046.046-.021.1.141.291a1.835,1.835,0,0,0,.216.237c.012,0,.341-.27.727-.6l.706-.6.012,3.407.008,3.411H14.57v-.665H12.742V17.326l5.484-4.716,5.484,4.716v6.752H21.883v.665h2.493l.008-3.411.012-3.407.648.553c.353.3.677.577.715.607.066.058.141,0,.407-.341l.079-.1-3.989-3.432c-2.194-1.886-4.009-3.432-4.039-3.428s-1.82,1.525-3.976,3.382ZM17.09,16.2v1.122h2.345v-2.3H17.09Zm1.884,0v.769h-1.5V15.436h1.5Zm-1.242,2.622a2.013,2.013,0,0,0-1.438,2.406A2.067,2.067,0,0,0,17.815,22.7a4.548,4.548,0,0,1-1.147.041c-1.488,0-1.537.013-1.691.3-.071.129-.075.282-.075,2.2s0,2.069.075,2.2a.622.622,0,0,0,.22.22c.133.071.312.075,3.029.075s2.9,0,3.029-.075a.622.622,0,0,0,.22-.22c.071-.129.075-.283.075-2.2s0-2.069-.075-2.2c-.154-.287-.2-.3-1.691-.3a4.561,4.561,0,0,1-1.147-.041,2.036,2.036,0,0,0,1.55-1.649,2,2,0,0,0-2.455-2.227Zm1.059.723a1.529,1.529,0,0,1,.644.644,1.5,1.5,0,0,1,0,1.122,1.463,1.463,0,0,1-.644.644,1.5,1.5,0,0,1-1.122,0,1.343,1.343,0,0,1,.154-2.481,1.592,1.592,0,0,1,.972.066Zm2.094,5.692v1.828H15.567V23.413h5.318v1.828Z" transform="translate(-10.245 -11.783)" fill="#239397" stroke="#239397" stroke-width="0.5"/>
  </g>
</svg>
