<svg id="unit-location" xmlns="http://www.w3.org/2000/svg" width="16" height="16" viewBox="0 0 16 16">
  <path id="map02" d="M17.775,47.9a3.267,3.267,0,0,0-2.619,4.379,5.586,5.586,0,0,0,.506,1.034A31.37,31.37,0,0,1,17.743,57.9c.206.561.261.635.47.635s.258-.074.532-.822a28.6,28.6,0,0,1,2.043-4.475,8.374,8.374,0,0,0,.4-.773,3.388,3.388,0,0,0,.2-2.007A3.267,3.267,0,0,0,17.775,47.9Zm.7,1.933a1.38,1.38,0,0,1,1.1,1.53,1.333,1.333,0,0,1-.387.754,1.287,1.287,0,0,1-.76.383,1.357,1.357,0,0,1-1.414-.757.932.932,0,0,1-.106-.574.969.969,0,0,1,.09-.544,1.345,1.345,0,0,1,.886-.764,1.091,1.091,0,0,1,.59-.029ZM11.863,52.3a2.449,2.449,0,0,0-.9.451,2.1,2.1,0,0,0-.689,1.389l-.039.338,1.591,1.591,2.423-2.423-.2-.4a6.952,6.952,0,0,1-.29-.689l-.1-.29-.8-.006A5.908,5.908,0,0,0,11.863,52.3Zm10.893.106a6.114,6.114,0,0,1-.535,1.218L22.005,54l2.552,2.552,1.682-1.675-.016-.451a3.839,3.839,0,0,0-.071-.644A2.092,2.092,0,0,0,24.589,52.3a6.456,6.456,0,0,0-1-.045H22.8l-.042.155Zm-9,3.412-1.089,1.089,5.767,5.767,5.3-5.3-1.144-1.144c-.628-.628-1.153-1.144-1.163-1.144s-.409.805-.7,1.45-.564,1.34-.909,2.275c-.161.441-.329.863-.371.934a1.41,1.41,0,0,1-2.41.01c-.048-.08-.222-.519-.393-.976-.367-1-.654-1.695-1.031-2.516-.306-.667-.664-1.385-.731-1.476-.038-.051-.145.048-1.127,1.031Zm-3.505,2.594c0,1.308.016,2.326.032,2.458a1.952,1.952,0,0,0,.329.87,2.024,2.024,0,0,0,1.205.854,13.657,13.657,0,0,0,2.6.064h2.355l-3.238-3.238c-1.782-1.782-3.248-3.238-3.261-3.238s-.026,1.005-.026,2.23ZM25.8,56.977l-.409.412.4.4a2.867,2.867,0,0,0,.419.38c.01-.01.013-.374.01-.812l-.01-.793-.412.409ZM22.35,60.434l-2.223,2.223h2.127c2.323,0,2.381-.007,2.768-.187A2.1,2.1,0,0,0,26,61.513a2.251,2.251,0,0,0,.219-1.112l.016-.532-.834-.828-.831-.831Z" transform="translate(-10.239 -47.354)" fill="rgba(35,147,151,0.98)"/>
  <rect id="Rectangle_2395" data-name="Rectangle 2395" width="16" height="16" fill="none"/>
</svg>
